<svg width="48" height="39" viewBox="0 0 48 39" fill="none" xmlns="http://www.w3.org/2000/svg">
<g filter="url(#filter0_d)">
<path d="M6.731 14.9598C5.76894 15.9457 5.77096 17.5196 6.73555 18.503L16.3762 28.3315C17.2754 29.2481 18.7515 29.2492 19.6519 28.3339L41.2356 6.39328C42.2129 5.39988 42.2077 3.80474 41.2241 2.81767C40.2266 1.81671 38.604 1.82188 37.6129 2.82919L18.0129 22.7499L10.3508 14.9535C9.35559 13.9408 7.72261 13.9437 6.731 14.9598Z" fill="#C01111"/>
<path d="M6.55208 14.7852C5.49507 15.8684 5.49729 17.5976 6.55708 18.6781L16.1978 28.5065C17.1948 29.523 18.8316 29.5242 19.8301 28.5092L41.4139 6.56861C42.4873 5.47746 42.4816 3.72538 41.4012 2.6412C40.3055 1.54175 38.5233 1.54744 37.4347 2.65386L18.013 22.3933L10.5291 14.7782C9.43568 13.6657 7.64155 13.6688 6.55208 14.7852Z" stroke="#C01111" stroke-width="0.5"/>
</g>
<defs>
<filter id="filter0_d" x="0.510742" y="0.570312" width="46.9544" height="37.9493" filterUnits="userSpaceOnUse" color-interpolation-filters="sRGB">
<feFlood flood-opacity="0" result="BackgroundImageFix"/>
<feColorMatrix in="SourceAlpha" type="matrix" values="0 0 0 0 0 0 0 0 0 0 0 0 0 0 0 0 0 0 127 0"/>
<feOffset dy="4"/>
<feGaussianBlur stdDeviation="2.5"/>
<feColorMatrix type="matrix" values="0 0 0 0 0 0 0 0 0 0 0 0 0 0 0 0 0 0 0.1 0"/>
<feBlend mode="normal" in2="BackgroundImageFix" result="effect1_dropShadow"/>
<feBlend mode="normal" in="SourceGraphic" in2="effect1_dropShadow" result="shape"/>
</filter>
</defs>
</svg>
